# xmcd CD database file
#
# Track frame offsets:
#	150
#	8379
#	24029
#	38527
#	49204
#	66002
#	76958
#	87915
#	93013
#	108374
#	115333
#	122468
#	139315
#	145700
#
# Disc length: 2120 seconds
#
# Revision: 0
# Processed by: cddbd v1.5.2PL0 Copyright (c) Steve Scherf et al.
# Submitted via: CDex 1.70beta2
#
DISCID=9d08460e
DTITLE=Secret Diary - College
DYEAR=2008
DGENRE=Jazz
TTITLE0=Fighting For Life
TTITLE1=The Energy Story
TTITLE2=When You Smile
TTITLE3=Secret Diary
TTITLE4=Desire
TTITLE5=Gate Number 5
TTITLE6=Something Wrong Tonight
TTITLE7=Burning By The Stars
TTITLE8=She Never Came Back
TTITLE9=I Think About It
TTITLE10=The Golden Messenger
TTITLE11=Fantasy Park
TTITLE12=I Need A Better Engine
TTITLE13=End Theme
EXTD=YEAR: 2008
EXTT0=
EXTT1=
EXTT2=
EXTT3=
EXTT4=
EXTT5=
EXTT6=
EXTT7=
EXTT8=
EXTT9=
EXTT10=
EXTT11=
EXTT12=
EXTT13=
PLAYORDER=
